<svg width="512" height="512" viewBox="0 0 512 512" fill="none" xmlns="http://www.w3.org/2000/svg">
<g clip-path="url(#clip0)">
<path d="M82.369 109.515C80.621 109.515 78.866 108.908 77.444 107.669C65.696 97.431 58.959 82.639 58.959 67.085C58.959 51.531 65.697 36.739 77.445 26.502C80.567 23.781 85.305 24.106 88.027 27.229C90.748 30.352 90.423 35.089 87.3 37.811C78.822 45.199 73.96 55.87 73.96 67.086C73.96 78.302 78.821 88.972 87.3 96.361C90.423 99.083 90.748 103.82 88.027 106.943C86.543 108.644 84.461 109.515 82.369 109.515V109.515Z" fill="#0ACCAB"/>
<path d="M120.531 189.185C154.668 189.185 182.342 161.511 182.342 127.374C182.342 93.2367 154.668 65.563 120.531 65.563C86.3937 65.563 58.72 93.2367 58.72 127.374C58.72 161.511 86.3937 189.185 120.531 189.185Z" fill="#FF7591"/>
<path d="M127.302 65.94C123.903 77.72 122.077 90.159 122.077 103.018C122.077 108.593 122.425 114.087 123.09 119.485C100.887 126.486 81.168 139.132 65.611 155.723C75.889 175.594 96.617 189.184 120.532 189.184C154.669 189.184 182.343 161.51 182.343 127.373C182.342 95.526 158.252 69.313 127.302 65.94V65.94Z" fill="#FD5C70"/>
<path d="M256 206.036C312.895 206.036 359.018 159.913 359.018 103.018C359.018 46.1227 312.895 0 256 0C199.105 0 152.982 46.1227 152.982 103.018C152.982 159.913 199.105 206.036 256 206.036Z" fill="#FFFDDB"/>
<path d="M196.817 44.45C192.675 44.45 189.317 47.808 189.317 51.95V64.312C189.317 68.454 192.675 71.812 196.817 71.812C200.959 71.812 204.317 68.454 204.317 64.312V51.95C204.317 47.808 200.959 44.45 196.817 44.45V44.45Z" fill="#423E4F"/>
<path d="M315.183 44.45C311.041 44.45 307.683 47.808 307.683 51.95V64.312C307.683 68.454 311.041 71.812 315.183 71.812C319.325 71.812 322.683 68.454 322.683 64.312V51.95C322.683 47.808 319.325 44.45 315.183 44.45V44.45Z" fill="#423E4F"/>
<path d="M285.971 64.183C281.829 64.183 278.471 67.541 278.471 71.683C278.471 75.759 275.155 79.075 271.079 79.075C267.003 79.075 263.687 75.759 263.687 71.683C263.687 67.541 260.329 64.183 256.187 64.183C252.045 64.183 248.687 67.541 248.687 71.683C248.687 75.759 245.371 79.075 241.295 79.075C237.219 79.075 233.903 75.759 233.903 71.683C233.903 67.541 230.545 64.183 226.403 64.183C222.261 64.183 218.903 67.541 218.903 71.683C218.903 84.03 228.948 94.075 241.295 94.075C247.008 94.075 252.226 91.921 256.187 88.386C260.147 91.921 265.365 94.075 271.079 94.075C283.426 94.075 293.471 84.03 293.471 71.683C293.471 67.541 290.113 64.183 285.971 64.183V64.183Z" fill="#423E4F"/>
<path d="M348.716 113.32C312.765 113.32 280.081 127.563 256 150.698C231.919 127.563 199.235 113.32 163.284 113.32C160.003 113.32 156.751 113.444 153.528 113.677C158.862 165.564 202.704 206.036 256 206.036C309.296 206.036 353.138 165.564 358.472 113.677C355.249 113.444 351.997 113.32 348.716 113.32V113.32Z" fill="#FFF3AC"/>
<path d="M307.568 398.048L269.497 382.279C258.984 377.924 253.992 365.872 258.346 355.359L400.271 12.724C404.626 2.211 416.678 -2.781 427.191 1.573L465.262 17.342C475.775 21.697 480.767 33.749 476.413 44.262L334.488 386.898C330.134 397.411 318.081 402.403 307.568 398.048V398.048Z" fill="#FFD3A3"/>
<path d="M296.418 371.128L438.342 28.494C442.697 17.981 454.749 12.989 465.262 17.343L427.191 1.574C416.678 -2.781 404.626 2.212 400.271 12.725L258.347 355.359C253.992 365.872 258.985 377.924 269.498 382.279L307.569 398.048C297.056 393.694 292.063 381.641 296.418 371.128V371.128Z" fill="#FFBE74"/>
<path d="M345.202 145.954L376.767 69.8038L452.917 101.368L421.353 177.519L345.202 145.954Z" fill="#E7886E"/>
<path d="M345.198 145.961L376.763 69.8106L414.838 85.5928L383.273 161.743L345.198 145.961Z" fill="#DC6646"/>
<path d="M348.716 350.261C405.611 350.261 451.734 304.138 451.734 247.243C451.734 190.348 405.611 144.225 348.716 144.225C291.821 144.225 245.698 190.348 245.698 247.243C245.698 304.138 291.821 350.261 348.716 350.261Z" fill="#FFCCD3"/>
<path d="M245.698 247.243C245.698 275.61 257.165 301.297 275.715 319.927C289.304 298.979 297.207 274.018 297.207 247.243C297.207 220.468 289.304 195.506 275.715 174.559C257.165 193.189 245.698 218.876 245.698 247.243V247.243Z" fill="#FFABB9"/>
<path d="M163.284 350.261C220.179 350.261 266.302 304.138 266.302 247.243C266.302 190.348 220.179 144.225 163.284 144.225C106.389 144.225 60.266 190.348 60.266 247.243C60.266 304.138 106.389 350.261 163.284 350.261Z" fill="#BE9EDF"/>
<path d="M111.959 247.243C111.959 199.274 144.745 158.964 189.13 147.495C180.87 145.361 172.21 144.224 163.283 144.224C106.388 144.224 60.265 190.347 60.265 247.242C60.265 304.137 106.388 350.26 163.283 350.26C172.209 350.26 180.87 349.124 189.13 346.989C144.745 335.523 111.959 295.212 111.959 247.243V247.243Z" fill="#938ED9"/>
<path d="M289.681 215.91C289.679 215.91 289.677 215.91 289.675 215.91C285.533 215.907 282.178 212.546 282.181 208.404L282.19 196.17C282.193 192.03 285.55 188.676 289.69 188.676H289.696C293.838 188.679 297.193 192.04 297.19 196.182L297.181 208.416C297.178 212.556 293.821 215.91 289.681 215.91V215.91Z" fill="#423E4F"/>
<path d="M407.742 216.038C407.74 216.038 407.738 216.038 407.736 216.038C403.594 216.035 400.239 212.674 400.242 208.532L400.251 196.298C400.254 192.158 403.611 188.804 407.751 188.804H407.757C411.899 188.807 415.254 192.168 415.251 196.31L415.242 208.544C415.239 212.684 411.882 216.038 407.742 216.038V216.038Z" fill="#423E4F"/>
<path d="M365.899 221.421C365.897 221.421 365.895 221.421 365.893 221.421L331.508 221.391C327.366 221.388 324.011 218.027 324.014 213.885C324.017 209.745 327.375 206.391 331.514 206.391H331.52L365.905 206.421C370.047 206.424 373.402 209.785 373.399 213.927C373.396 218.067 370.038 221.421 365.899 221.421Z" fill="#423E4F"/>
<path d="M104.101 216.038C99.959 216.038 96.601 212.68 96.601 208.538V196.176C96.601 192.034 99.959 188.676 104.101 188.676C108.243 188.676 111.601 192.034 111.601 196.176V208.538C111.601 212.68 108.243 216.038 104.101 216.038Z" fill="#423E4F"/>
<path d="M222.466 216.038C218.324 216.038 214.966 212.68 214.966 208.538V196.176C214.966 192.034 218.324 188.676 222.466 188.676C226.608 188.676 229.966 192.034 229.966 196.176V208.538C229.966 212.68 226.608 216.038 222.466 216.038Z" fill="#423E4F"/>
<path d="M163.284 223.397C154.617 223.397 146.373 219.643 140.669 213.098C137.947 209.975 138.273 205.238 141.395 202.516C144.517 199.794 149.255 200.119 151.977 203.242C154.832 206.518 158.954 208.397 163.284 208.397C167.614 208.397 171.736 206.518 174.592 203.242C177.314 200.12 182.051 199.795 185.174 202.516C188.296 205.238 188.621 209.975 185.9 213.098C180.194 219.643 171.951 223.397 163.284 223.397V223.397Z" fill="#423E4F"/>
<path d="M68.038 405.538L80.552 471.234C85.057 494.887 105.737 512 129.815 512H379.965C404.043 512 424.723 494.887 429.229 471.234L441.743 405.538L256 374.633L68.038 405.538Z" fill="#84DFFF"/>
<path d="M180.479 471.234L164.946 389.684L68.038 405.538L80.552 471.234C85.057 494.887 105.737 512 129.815 512H229.743C205.664 512 184.984 494.887 180.479 471.234V471.234Z" fill="#2FCFFC"/>
<path d="M462.67 295.662H47.109L68.038 405.538C101.404 412.017 107.703 434.736 151.867 434.736C203.375 434.736 203.375 403.831 254.883 403.831C306.394 403.831 306.394 434.736 357.904 434.736C402.072 434.736 408.371 412.016 441.741 405.537L462.67 295.662Z" fill="#FBF081"/>
<path d="M47.109 295.662L68.038 405.538C101.404 412.017 107.703 434.736 151.867 434.736C160.139 434.736 167.078 433.936 173.12 432.598L147.037 295.662H47.109Z" fill="#FAD271"/>
<path d="M0 295.662C0 284.283 9.225 275.058 20.604 275.058H491.397C502.776 275.058 512.001 284.283 512.001 295.662C512.001 307.041 502.776 316.266 491.397 316.266H20.604C9.225 316.266 0 307.041 0 295.662H0Z" fill="#84DFFF"/>
<path d="M117.018 264.757V378.077C117.018 389.456 126.243 398.681 137.622 398.681C149.001 398.681 158.226 389.456 158.226 378.077V336.87C158.226 325.491 167.451 316.266 178.83 316.266C190.209 316.266 199.434 325.491 199.434 336.87C199.434 348.249 208.659 357.474 220.038 357.474C231.417 357.474 240.642 348.249 240.642 336.87V264.757H117.018Z" fill="#BE9EDF"/>
<path d="M99.928 295.662C99.928 284.283 109.153 275.058 120.532 275.058H20.604C9.225 275.058 0 284.283 0 295.662C0 307.041 9.225 316.266 20.604 316.266H120.532C109.152 316.266 99.928 307.041 99.928 295.662Z" fill="#2FCFFC"/>
</g>
<defs>
<clipPath id="clip0">
<rect width="512" height="512" fill="white"/>
</clipPath>
</defs>
</svg>
